User Type,Username,Date,Text
,fofonli,2012-04-08T15:42Z,"Amazing DR12 for this release, I'd like to know much info about this CD release, I have the remaster )with bonus tracks, that is a shame of DR5, I'll compare to this and then commet.


foobar2000 1.1.11 / Dynamic Range Meter 1.1.1
log date: 2012-04-08 14:26:32

--------------------------------------------------------------------------------
Analyzed: Kansas / Masque
--------------------------------------------------------------------------------

DR         Peak         RMS     Duration Track
--------------------------------------------------------------------------------
DR13      -0.18 dB   -16.02 dB      3:09 01-It Takes a Woman's Love (To Make a Man)
DR14      -0.18 dB   -16.43 dB      3:10 02-Two Cents Worth
DR12      -0.18 dB   -16.33 dB      6:07 03-Icarus - Borne on the Wings of Steel
DR12      -0.18 dB   -17.62 dB      7:13 04-All Over the World
DR12      -0.18 dB   -15.72 dB      4:38 05-Child of Innocence
DR12      -0.18 dB   -15.00 dB      2:35 06-It's You
DR12      -0.18 dB   -15.55 dB      4:21 07-Mysteries and Mayhem
DR12      -0.18 dB   -16.24 dB      9:35 08-The Pinnacle
--------------------------------------------------------------------------------

Number of tracks:  8
Official DR value: DR12

Samplerate:        44100 Hz
Channels:          2
Bits per sample:   16
Bitrate:           787 kbps
Codec:             FLAC
================================================================================"
